<mxfile><diagram id="v97sD7AWx_AjKFMKodqa" name="ページ1"><mxGraphModel dx="1264" dy="1060" grid="1" gridSize="10" guides="1" tooltips="1" connect="1" arrows="1" fold="1" page="1" pageScale="1" pageWidth="1169" pageHeight="827" math="0" shadow="0"><root><mxCell id="0"/><mxCell id="1" parent="0"/><mxCell id="4" value="" style="edgeStyle=none;html=1;entryX=0;entryY=0.5;entryDx=0;entryDy=0;" parent="1" source="2" target="16" edge="1"><mxGeometry relative="1" as="geometry"><mxPoint x="820" y="80" as="targetPoint"/></mxGeometry></mxCell><mxCell id="6" value="" style="edgeStyle=none;html=1;entryX=0.5;entryY=0;entryDx=0;entryDy=0;" parent="1" source="2" target="5" edge="1"><mxGeometry relative="1" as="geometry"><Array as="points"/></mxGeometry></mxCell><mxCell id="2" value="記事一覧&lt;br&gt;(非ログイン)" style="rounded=0;whiteSpace=wrap;html=1;" parent="1" vertex="1"><mxGeometry x="40" y="40" width="120" height="60" as="geometry"/></mxCell><mxCell id="8" value="" style="edgeStyle=none;html=1;entryX=0.5;entryY=0;entryDx=0;entryDy=0;" parent="1" target="7" edge="1"><mxGeometry relative="1" as="geometry"><mxPoint x="300" y="140" as="sourcePoint"/></mxGeometry></mxCell><mxCell id="11" value="" style="edgeStyle=none;html=1;" parent="1" source="5" target="10" edge="1"><mxGeometry relative="1" as="geometry"/></mxCell><mxCell id="5" value="ユーザー登録" style="whiteSpace=wrap;html=1;rounded=0;" parent="1" vertex="1"><mxGeometry x="40" y="180" width="120" height="60" as="geometry"/></mxCell><mxCell id="13" value="" style="edgeStyle=none;html=1;" parent="1" source="7" target="12" edge="1"><mxGeometry relative="1" as="geometry"/></mxCell><mxCell id="7" value="ログイン" style="whiteSpace=wrap;html=1;rounded=0;" parent="1" vertex="1"><mxGeometry x="240" y="180" width="120" height="60" as="geometry"/></mxCell><mxCell id="9" value="" style="endArrow=none;html=1;" parent="1" edge="1"><mxGeometry width="50" height="50" relative="1" as="geometry"><mxPoint x="100" y="140" as="sourcePoint"/><mxPoint x="300" y="140" as="targetPoint"/><Array as="points"><mxPoint x="190" y="140"/></Array></mxGeometry></mxCell><mxCell id="29" value="" style="edgeStyle=none;html=1;" parent="1" target="28" edge="1"><mxGeometry relative="1" as="geometry"><mxPoint x="500" y="420" as="sourcePoint"/></mxGeometry></mxCell><mxCell id="10" value="記事一覧&lt;br&gt;(ログイン)" style="whiteSpace=wrap;html=1;rounded=0;" parent="1" vertex="1"><mxGeometry x="40" y="320" width="120" height="60" as="geometry"/></mxCell><mxCell id="25" value="" style="edgeStyle=none;html=1;" parent="1" source="12" target="24" edge="1"><mxGeometry relative="1" as="geometry"/></mxCell><mxCell id="12" value="パスワードお忘れ" style="whiteSpace=wrap;html=1;rounded=0;" parent="1" vertex="1"><mxGeometry x="440" y="180" width="120" height="60" as="geometry"/></mxCell><mxCell id="19" value="" style="edgeStyle=none;html=1;entryX=0;entryY=0.5;entryDx=0;entryDy=0;" parent="1" target="18" edge="1"><mxGeometry relative="1" as="geometry"><mxPoint x="700" y="70" as="targetPoint"/><mxPoint x="700" y="210" as="sourcePoint"/></mxGeometry></mxCell><mxCell id="16" value="記事詳細" style="rounded=0;whiteSpace=wrap;html=1;" parent="1" vertex="1"><mxGeometry x="840" y="40" width="120" height="60" as="geometry"/></mxCell><mxCell id="18" value="ユーザー詳細" style="rounded=0;whiteSpace=wrap;html=1;" parent="1" vertex="1"><mxGeometry x="840" y="180" width="120" height="60" as="geometry"/></mxCell><mxCell id="23" value="" style="endArrow=none;html=1;" parent="1" edge="1"><mxGeometry width="50" height="50" relative="1" as="geometry"><mxPoint x="700" y="210" as="sourcePoint"/><mxPoint x="700" y="70" as="targetPoint"/></mxGeometry></mxCell><mxCell id="24" value="パスワード再設定" style="whiteSpace=wrap;html=1;rounded=0;" parent="1" vertex="1"><mxGeometry x="440" y="320" width="120" height="60" as="geometry"/></mxCell><mxCell id="26" value="" style="endArrow=none;html=1;entryX=0.5;entryY=1;entryDx=0;entryDy=0;" parent="1" target="7" edge="1"><mxGeometry width="50" height="50" relative="1" as="geometry"><mxPoint x="300" y="350" as="sourcePoint"/><mxPoint x="560" y="390" as="targetPoint"/></mxGeometry></mxCell><mxCell id="27" value="" style="endArrow=classic;html=1;entryX=1;entryY=0.5;entryDx=0;entryDy=0;" parent="1" target="10" edge="1"><mxGeometry width="50" height="50" relative="1" as="geometry"><mxPoint x="300" y="350" as="sourcePoint"/><mxPoint x="560" y="390" as="targetPoint"/></mxGeometry></mxCell><mxCell id="28" value="記事投稿" style="whiteSpace=wrap;html=1;rounded=0;" parent="1" vertex="1"><mxGeometry x="440" y="460" width="120" height="60" as="geometry"/></mxCell><mxCell id="39" value="" style="edgeStyle=none;html=1;" parent="1" source="30" target="38" edge="1"><mxGeometry relative="1" as="geometry"/></mxCell><mxCell id="30" value="記事詳細" style="whiteSpace=wrap;html=1;rounded=0;" parent="1" vertex="1"><mxGeometry x="240" y="460" width="120" height="60" as="geometry"/></mxCell><mxCell id="37" value="" style="edgeStyle=none;html=1;entryX=0.5;entryY=0;entryDx=0;entryDy=0;" parent="1" target="36" edge="1"><mxGeometry relative="1" as="geometry"><mxPoint x="500" y="560" as="sourcePoint"/></mxGeometry></mxCell><mxCell id="44" value="" style="edgeStyle=none;html=1;" parent="1" source="34" target="43" edge="1"><mxGeometry relative="1" as="geometry"/></mxCell><mxCell id="34" value="マイページ編集" style="whiteSpace=wrap;html=1;rounded=0;" parent="1" vertex="1"><mxGeometry x="40" y="460" width="120" height="60" as="geometry"/></mxCell><mxCell id="36" value="記事消去" style="whiteSpace=wrap;html=1;rounded=0;" parent="1" vertex="1"><mxGeometry x="440" y="600" width="120" height="60" as="geometry"/></mxCell><mxCell id="38" value="記事編集" style="whiteSpace=wrap;html=1;rounded=0;" parent="1" vertex="1"><mxGeometry x="240" y="600" width="120" height="60" as="geometry"/></mxCell><mxCell id="40" value="" style="endArrow=none;html=1;" parent="1" edge="1"><mxGeometry width="50" height="50" relative="1" as="geometry"><mxPoint x="300" y="420" as="sourcePoint"/><mxPoint x="100" y="420" as="targetPoint"/></mxGeometry></mxCell><mxCell id="41" value="" style="endArrow=classic;html=1;" parent="1" target="30" edge="1"><mxGeometry width="50" height="50" relative="1" as="geometry"><mxPoint x="300" y="420" as="sourcePoint"/><mxPoint x="750" y="540" as="targetPoint"/></mxGeometry></mxCell><mxCell id="42" value="" style="endArrow=none;html=1;" parent="1" edge="1"><mxGeometry width="50" height="50" relative="1" as="geometry"><mxPoint x="300" y="560" as="sourcePoint"/><mxPoint x="500" y="560" as="targetPoint"/></mxGeometry></mxCell><mxCell id="43" value="マイページ消去" style="whiteSpace=wrap;html=1;rounded=0;" parent="1" vertex="1"><mxGeometry x="40" y="600" width="120" height="60" as="geometry"/></mxCell><mxCell id="47" value="" style="edgeStyle=none;html=1;exitX=0.5;exitY=1;exitDx=0;exitDy=0;" parent="1" source="10" edge="1"><mxGeometry relative="1" as="geometry"><mxPoint x="99.99999999999977" y="420" as="sourcePoint"/><mxPoint x="99.99999999999977" y="460" as="targetPoint"/></mxGeometry></mxCell><mxCell id="48" value="" style="endArrow=none;html=1;" parent="1" edge="1"><mxGeometry width="50" height="50" relative="1" as="geometry"><mxPoint x="499.9999999999998" y="420" as="sourcePoint"/><mxPoint x="300" y="420" as="targetPoint"/></mxGeometry></mxCell><mxCell id="67" value="" style="edgeStyle=none;html=1;" parent="1" source="49" target="65" edge="1"><mxGeometry relative="1" as="geometry"/></mxCell><mxCell id="49" value="ユーザー詳細" style="whiteSpace=wrap;html=1;rounded=0;" parent="1" vertex="1"><mxGeometry x="640" y="460" width="120" height="60" as="geometry"/></mxCell><mxCell id="73" value="" style="edgeStyle=none;html=1;" parent="1" target="68" edge="1"><mxGeometry relative="1" as="geometry"><mxPoint x="900" y="560" as="sourcePoint"/></mxGeometry></mxCell><mxCell id="51" value="DM" style="whiteSpace=wrap;html=1;rounded=0;" parent="1" vertex="1"><mxGeometry x="840" y="460" width="120" height="60" as="geometry"/></mxCell><mxCell id="72" value="" style="edgeStyle=none;html=1;" parent="1" target="69" edge="1"><mxGeometry relative="1" as="geometry"><mxPoint x="1100" y="560" as="sourcePoint"/></mxGeometry></mxCell><mxCell id="53" value="検索結果" style="whiteSpace=wrap;html=1;rounded=0;" parent="1" vertex="1"><mxGeometry x="1040" y="460" width="120" height="60" as="geometry"/></mxCell><mxCell id="55" value="" style="edgeStyle=none;html=1;" parent="1" edge="1"><mxGeometry relative="1" as="geometry"><mxPoint x="699.9999999999998" y="420" as="sourcePoint"/><mxPoint x="699.9999999999998" y="460" as="targetPoint"/></mxGeometry></mxCell><mxCell id="56" value="" style="endArrow=none;html=1;" parent="1" edge="1"><mxGeometry width="50" height="50" relative="1" as="geometry"><mxPoint x="699.9999999999998" y="420" as="sourcePoint"/><mxPoint x="500" y="420" as="targetPoint"/></mxGeometry></mxCell><mxCell id="57" value="" style="edgeStyle=none;html=1;" parent="1" edge="1"><mxGeometry relative="1" as="geometry"><mxPoint x="899.9999999999998" y="420" as="sourcePoint"/><mxPoint x="899.9999999999998" y="460" as="targetPoint"/></mxGeometry></mxCell><mxCell id="58" value="" style="endArrow=none;html=1;" parent="1" edge="1"><mxGeometry width="50" height="50" relative="1" as="geometry"><mxPoint x="899.9999999999998" y="420" as="sourcePoint"/><mxPoint x="700" y="420" as="targetPoint"/></mxGeometry></mxCell><mxCell id="59" value="" style="edgeStyle=none;html=1;" parent="1" edge="1"><mxGeometry relative="1" as="geometry"><mxPoint x="1099.9999999999998" y="420" as="sourcePoint"/><mxPoint x="1099.9999999999998" y="460" as="targetPoint"/></mxGeometry></mxCell><mxCell id="60" value="" style="endArrow=none;html=1;" parent="1" edge="1"><mxGeometry width="50" height="50" relative="1" as="geometry"><mxPoint x="1099.9999999999998" y="420" as="sourcePoint"/><mxPoint x="900" y="420" as="targetPoint"/></mxGeometry></mxCell><mxCell id="65" value="フォロー" style="whiteSpace=wrap;html=1;rounded=0;" parent="1" vertex="1"><mxGeometry x="640" y="600" width="120" height="60" as="geometry"/></mxCell><mxCell id="68" value="フォロワー" style="rounded=0;whiteSpace=wrap;html=1;" parent="1" vertex="1"><mxGeometry x="840" y="600" width="120" height="60" as="geometry"/></mxCell><mxCell id="69" value="いいね" style="rounded=0;whiteSpace=wrap;html=1;" parent="1" vertex="1"><mxGeometry x="1040" y="600" width="120" height="60" as="geometry"/></mxCell><mxCell id="70" value="" style="endArrow=none;html=1;" parent="1" edge="1"><mxGeometry width="50" height="50" relative="1" as="geometry"><mxPoint x="700" y="560" as="sourcePoint"/><mxPoint x="1100" y="560" as="targetPoint"/></mxGeometry></mxCell><mxCell id="74" value="" style="edgeStyle=none;html=1;entryX=0;entryY=0.5;entryDx=0;entryDy=0;" parent="1" target="75" edge="1"><mxGeometry relative="1" as="geometry"><mxPoint x="700" y="210" as="targetPoint"/><mxPoint x="699.9999999999998" y="350" as="sourcePoint"/></mxGeometry></mxCell><mxCell id="75" value="検索結果" style="rounded=0;whiteSpace=wrap;html=1;" parent="1" vertex="1"><mxGeometry x="840" y="320" width="120" height="60" as="geometry"/></mxCell><mxCell id="76" value="" style="endArrow=none;html=1;" parent="1" edge="1"><mxGeometry width="50" height="50" relative="1" as="geometry"><mxPoint x="700" y="350" as="sourcePoint"/><mxPoint x="700" y="210" as="targetPoint"/></mxGeometry></mxCell></root></mxGraphModel></diagram></mxfile>